<svg width="26" height="26" viewBox="0 0 26 26" fill="none" xmlns="http://www.w3.org/2000/svg">
<path d="M12.9994 22.7499C11.631 21.5827 10.3627 20.3032 9.20768 18.9246C7.47435 16.8544 5.41602 13.7712 5.41602 10.8332C5.41526 9.33277 5.85965 7.86581 6.69293 6.61801C7.52622 5.3702 8.71094 4.39764 10.0972 3.82341C11.4834 3.24918 13.0088 3.09909 14.4804 3.39213C15.952 3.68517 17.3035 4.40818 18.364 5.46965C19.0701 6.17258 19.6297 7.00856 20.0106 7.92922C20.3914 8.84987 20.5859 9.83692 20.5827 10.8332C20.5827 13.7712 18.5244 16.8544 16.791 18.9246C15.636 20.3032 14.3677 21.5827 12.9994 22.7499ZM12.9994 7.58323C12.1374 7.58323 11.3107 7.92564 10.7013 8.53513C10.0918 9.14463 9.74935 9.97128 9.74935 10.8332C9.74935 11.6952 10.0918 12.5218 10.7013 13.1313C11.3107 13.7408 12.1374 14.0832 12.9994 14.0832C13.8613 14.0832 14.688 13.7408 15.2974 13.1313C15.9069 12.5218 16.2494 11.6952 16.2494 10.8332C16.2494 9.97128 15.9069 9.14463 15.2974 8.53513C14.688 7.92564 13.8613 7.58323 12.9994 7.58323Z" fill="#82746C"/>
</svg>
